<svg
                  xmlns="http://www.w3.org/2000/svg"
                  version="1.0"
                  width="173"
                  height="34"
                  viewBox="0 0 1052.000000 252.000000"
                  preserveAspectRatio="xMidYMid meet"
                >
                  <g
                    transform="translate(0.000000,252.000000) scale(0.100000,-0.100000)"
                    fill="#ffffff"
                    stroke="none"
                  >
                    <path d="M1610 2193 c-109 -38 -207 -139 -281 -287 -26 -55 -47 -102 -44 -104 2 -2 34 8 72 24 72 29 182 42 247 30 20 -4 51 -20 70 -36 33 -29 33 -29 51 -10 53 58 212 66 334 16 35 -14 66 -24 69 -21 9 9 -89 191 -130 242 -116 140 -255 193 -388 146z" />
                    <path d="M9555 1860 c-48 -15 -87 -62 -92 -112 -13 -132 171 -191 256 -82 40 51 19 153 -37 183 -28 15 -95 20 -127 11z" />
                    <path d="M1470 1804 c-324 -62 -717 -460 -755 -765 -22 -181 107 -296 303 -268 228 32 513 261 651 523 17 33 33 62 35 63 2 2 22 -29 44 -69 128 -232 348 -427 562 -498 90 -30 202 -30 264 0 215 103 146 431 -154 730 -201 202 -442 315 -595 281 -30 -7 -68 -23 -84 -37 l-29 -24 -49 30 c-48 30 -133 45 -193 34z" />
                    <path d="M3320 1260 l0 -521 118 3 117 3 5 158 5 159 115 -161 115 -161 149 0 148 0 -44 53 c-24 28 -92 109 -150 179 -59 69 -112 135 -119 146 -11 18 2 38 131 193 79 96 150 182 158 192 14 16 7 17 -131 17 l-147 0 -112 -150 -113 -150 -3 280 -2 280 -120 0 -120 0 0 -520z" />
                    <path d="M7580 1260 l0 -520 119 0 120 0 3 249 c3 234 4 251 24 277 36 49 66 65 122 66 63 0 108 -24 133 -72 17 -31 19 -60 19 -277 l0 -243 121 0 120 0 -3 282 -3 283 -28 60 c-51 110 -117 155 -232 163 -97 6 -160 -10 -223 -58 l-52 -40 0 175 0 175 -120 0 -120 0 0 -520z" />
                    <path d="M4409 1527 c-164 -37 -269 -189 -269 -392 0 -149 56 -275 154 -342 128 -88 284 -81 392 19 l44 41 0 -57 0 -56 115 0 115 0 0 390 0 390 -115 0 -115 0 0 -51 0 -51 -49 44 c-71 64 -169 88 -272 65z m235 -226 c111 -69 106 -273 -9 -338 -120 -68 -255 23 -255 172 0 153 141 241 264 166z" />
                    <path d="M5371 1529 c-146 -29 -245 -146 -272 -321 -30 -190 52 -373 200 -445 47 -23 69 -28 136 -28 68 0 89 4 137 28 31 15 69 42 83 58 l25 31 0 -56 0 -56 120 0 120 0 0 390 0 390 -120 0 -120 0 0 -52 0 -52 -34 37 c-59 65 -174 97 -275 76z m235 -234 c114 -87 90 -295 -39 -344 -75 -29 -165 4 -204 74 -32 56 -32 164 0 219 48 86 165 110 243 51z" />
                    <path d="M8761 1529 c-145 -28 -249 -151 -274 -325 -28 -191 60 -379 208 -446 38 -17 68 -22 130 -22 94 0 152 21 208 78 l37 37 0 -56 0 -55 120 0 120 0 0 390 0 390 -120 0 -120 0 0 -52 0 -51 -35 36 c-46 47 -76 63 -150 76 -65 12 -63 12 -124 0z m209 -218 c133 -70 129 -301 -7 -357 -137 -58 -268 74 -233 232 14 62 44 102 94 125 52 24 102 24 146 0z" />
                    <path d="M6470 1521 c-42 -13 -84 -38 -104 -60 -28 -30 -36 -26 -36 19 l0 40 -120 0 -120 0 2 -387 3 -388 117 -3 117 -3 3 243 c4 282 7 295 85 330 76 34 145 14 197 -56 20 -26 21 -44 24 -272 l4 -244 114 0 114 0 0 230 c0 256 7 292 63 332 43 31 134 32 173 2 69 -51 69 -51 72 -320 l4 -244 114 0 114 0 0 273 c-1 231 -3 279 -18 319 -46 126 -132 189 -268 196 -112 6 -170 -14 -242 -84 -31 -30 -56 -53 -57 -51 -14 30 -65 79 -106 102 -46 25 -67 29 -139 32 -47 1 -96 -1 -110 -6z" />
                    <path d="M9482 1133 l3 -388 118 -3 117 -3 0 391 0 390 -120 0 -120 0 2 -387z" />
                    <path d="M1696 1257 c-12 -51 -150 -240 -237 -327 l-90 -89 38 -10 c162 -42 510 -42 620 0 22 8 18 13 -61 89 -93 89 -149 161 -217 280 -40 69 -48 77 -53 57z" />
                    <path d="M1313 809 c-17 -17 4 -57 39 -75 114 -59 476 -71 672 -21 40 9 54 19 69 45 17 29 18 36 6 47 -12 11 -26 10 -89 -8 -65 -18 -103 -21 -290 -21 -194 -1 -222 1 -293 22 -88 25 -99 26 -114 11z" />
                    <path d="M1371 660 c31 -56 49 -66 141 -80 76 -12 404 -9 458 5 23 6 96 93 86 103 -2 2 -21 -1 -42 -7 -161 -42 -522 -33 -651 16 -13 5 -11 -3 8 -37z" />
                    <path d="M1480 529 c106 -94 248 -117 364 -60 34 16 71 41 83 53 l22 23 -202 0 c-111 0 -224 3 -252 7 l-50 7 35 -30z" />
                  </g>
                </svg>