<svg xmlns="http://www.w3.org/2000/svg" width="5" height="5" viewBox="0 0 5 5" fill="none">
	<path d="M2.94031 2.49973L4.90763 0.535323C4.96643 0.476514 4.99947 0.396753 4.99947 0.313585C4.99947 0.230417 4.96643 0.150655 4.90763 0.0918469C4.84883 0.0330383 4.76907 0 4.68592 0C4.60276 0 4.523 0.0330383 4.4642 0.0918469L2.5 2.05938L0.535799 0.0918469C0.476996 0.0330383 0.397243 7.38401e-08 0.314084 7.44598e-08C0.230925 7.50794e-08 0.151172 0.0330383 0.09237 0.0918469C0.0335677 0.150655 0.000533001 0.230417 0.000533001 0.313585C0.000533 0.396753 0.0335677 0.476514 0.09237 0.535323L2.05969 2.49973L0.09237 4.46414C0.0631011 4.49318 0.0398698 4.52772 0.0240161 4.56578C0.00816236 4.60383 0 4.64465 0 4.68588C0 4.72711 0.00816236 4.76793 0.0240161 4.80599C0.0398698 4.84405 0.0631011 4.87859 0.09237 4.90762C0.1214 4.93689 0.155938 4.96013 0.193991 4.97598C0.232045 4.99184 0.272861 5 0.314084 5C0.355308 5 0.396124 4.99184 0.434178 4.97598C0.472231 4.96013 0.506769 4.93689 0.535799 4.90762L2.5 2.94009L4.4642 4.90762C4.49323 4.93689 4.52777 4.96013 4.56582 4.97598C4.60388 4.99184 4.64469 5 4.68592 5C4.72714 5 4.76796 4.99184 4.80601 4.97598C4.84406 4.96013 4.8786 4.93689 4.90763 4.90762C4.9369 4.87859 4.96013 4.84405 4.97598 4.80599C4.99184 4.76793 5 4.72711 5 4.68588C5 4.64465 4.99184 4.60383 4.97598 4.56578C4.96013 4.52772 4.9369 4.49318 4.90763 4.46414L2.94031 2.49973Z" fill="white" />
</svg>
